# xmcd
#
# Track frame offsets: 
#        150
#        5635
#        33705
#        54445
#        74125
#        92410
#        111025
#        123120
#        129025
#        158557
#        171312
#
# Disc length: 2453 seconds
#
# Revision: 7
# Processed by: cddbd v1.5.2PL0 Copyright (c) Steve Scherf et al.
# Submitted via: ExactAudioCopy v1.1
#
DISCID=8909930b
DTITLE=Queen - Queen II [TOCP-8272]
DYEAR=1974
DGENRE=Rock
TTITLE0=Procession
TTITLE1=Father To Son
TTITLE2=White Queen (As It Began)
TTITLE3=Some Day One Day
TTITLE4=The Loser In The End
TTITLE5=Ogre Battle
TTITLE6=The Fairy Feller's Master-Stroke
TTITLE7=Nevermore
TTITLE8=The March Of The Black Queen
TTITLE9=Funny How Love Is
TTITLE10=Seven Seas Of Rhye
EXTD=YEAR: 1974
EXTT0=
EXTT1=
EXTT2=
EXTT3=
EXTT4=
EXTT5=
EXTT6=
EXTT7=
EXTT8=
EXTT9=
EXTT10=
PLAYORDER=
